<?xml version="1.0" encoding="utf-8" ?>
<svg baseProfile="full" height="200mm" version="1.1" viewBox="0,0,200,200" width="200mm" xmlns="http://www.w3.org/2000/svg" xmlns:ev="http://www.w3.org/2001/xml-events" xmlns:xlink="http://www.w3.org/1999/xlink"><defs /><rect fill="#1a1a1a" height="200" width="200" x="0" y="0" /><rect fill="#1a1a1a" height="200" width="180" x="10" y="0" /><text alignment-baseline="middle" fill="#e1ed5e" style="dominant-baseline: central; font-size:9.0px; font-family:Arial;" text-anchor="middle" x="100.0" y="100.0">2026</text><line stroke="#e1ed5e" stroke-width="0.3" x1="100.0" x2="100.0" y1="15.0" y2="10.0" /><path d="M 100.0 14.0 a86.0,86.0 0 0,1 42.46469731375804,11.215312516191453" fill="none" id="id13" stroke="none" /><text fill="#e1ed5e" style="font-size:6.75px; font-family:Arial;" text-anchor="middle"><textPath startOffset="22.20632615414155" xlink:href="#id13">January</textPath></text><path d="M 100.0 79.0 l 0.0 -19.790251840174925 a40.790251840174925,40.790251840174925 0 0,0 0.7021371326111221,0.006043515972987887 l -0.34065665333859374 19.787319700810496" fill="red" stroke="none" /><path d="M 100.72285384407766 79.0124445844662 l 0.727204407415952 -21.113870976970276 a42.12639046032977,42.12639046032977 0 0,0 0.7244920053854622,0.03119814976131435 l -1.0905372451907458 21.098225100684765" fill="red" stroke="none" /><path d="M 101.44485096284872 79.0497635885617 l 1.5795519116341485 -22.903390608280755 a43.95779356987579,43.95779356987579 0 0,0 0.7544200026937252,0.05855751189956549 l -1.9735621036902151 22.872807834192724" fill="red" stroke="none" /><path d="M 101.80526077348638 79.07773832637324 l 3.365836447900539 -39.008719376096806 a60.15365937376845,60.15365937376845 0 0,0 1.0308471677234123,0.09789135973895155 l -4.036808742714196 38.94500247184268" fill="red" stroke="none" /><path d="M 102.52436894288641 79.15227682838746 l 4.065524682282523 -33.575493535691955 a54.820737086993546,54.820737086993546 0 0,0 0.9358298484776605,0.12149757282888951 l -4.642869259268029 33.500537639698926" fill="red" stroke="none" /><path d="M 103.95276090670814 79.375362276772 l 7.729249955944287 -40.329527632974546 a62.06351304966883,62.06351304966883 0 0,0 1.0474949414894306,0.21011763094200045 l -8.422311306900843 40.19050604595534" fill="red" stroke="none" /><path d="M 104.307194497241 79.44645832069477 l 4.477815491805055 -21.367729598003365 a42.831873482411865,42.831873482411865 0 0,0 0.7203041789737771,0.15743059448131502 l -4.84496239493236 21.28748550542618" fill="red" stroke="none" /><path d="M 105.01212808612495 79.60689891045804 l 5.711870965360229 -23.24018061898087 a44.93180864723306,44.93180864723306 0 0,0 0.7494863421157653,0.19106075661484132 l -6.11106619616102 23.13841686619716" fill="red" stroke="none" /><path d="M 105.36241919743992 79.69619591428918 l 5.6650314044730905 -21.449588989748026 a43.1850726535386,43.1850726535386 0 0,0 0.7170821899198243,0.1960056504417426 l -6.033411483616626 21.348896798479988" fill="red" stroke="none" /><path d="M 105.71112130821622 79.79150937346287 l 5.871120286291288 -20.77463826623688 a42.588322040146956,42.588322040146956 0 0,0 0.7037411599369507,0.2054413424388237 l -6.2278516639516655 20.670498594879355" fill="red" stroke="none" /><path d="M 106.74666289553966 80.11325718540242 l 13.18547691107445 -38.86605752774579 a62.04177419559883,62.04177419559883 0 0,0 1.0083797158476522,0.35180388280449826 l -13.852538630985375 38.63333279176908" fill="red" stroke="none" /><path d="M 107.4271985657038 80.35727306442388 l 11.830113559377086 -31.287125045603318 a54.44900268239662,54.44900268239662 0 0,0 0.8738205025212357,0.3390287793622165 l -12.36691722689799 31.078853562350556" fill="red" stroke="none" /><path d="M 109.08828744355905 81.06846463323043 l 17.70333369556425 -36.87727638993444 a61.906497501938695,61.906497501938695 0 0,0 0.9566874856250492,0.46944239434807866 l -18.335492448199734 36.56707883545153" fill="red" stroke="none" /><path d="M 109.41281617654863 81.2277094730956 l 17.234660650076822 -34.37165358247532 a59.45054092879572,59.45054092879572 0 0,0 0.9108375262388316,0.46656635806098334 l -17.82375866390441 34.06989469910183" fill="red" stroke="none" /><line stroke="#e1ed5e" stroke-width="0.3" x1="143.23703022742887" x2="145.7803849466894" y1="26.81831364943548" y2="22.513508569990506" /><path d="M 143.74570117128098 25.957352633546492 a86.0,86.0 0 0,1 28.547481713284135,27.462654790039103" fill="none" id="id14" stroke="none" /><text fill="#e1ed5e" style="font-size:6.75px; font-family:Arial;" text-anchor="middle"><textPath startOffset="19.985693538727396" xlink:href="#id14">February</textPath></text><path d="M 110.68208982089419 81.91981866633111 l 19.57130225840984 -33.12579277099472 a59.47536898844408,59.47536898844408 0 0,0 0.8769443030726393,0.5283491304044863 l -20.138608627700116 32.783997031131626" fill="red" stroke="none" /><path d="M 110.99172775467656 82.1063720568725 l 13.544055060198145 -22.048606688362288 a46.87629193628355,46.87629193628355 0 0,0 0.6839046693849427,0.4282610412273162 l -13.921578881955352 21.812201305812025" fill="red" stroke="none" /><path d="M 111.2981086023043 82.29822771554956 l 20.57755389802917 -32.24072153100262 a59.247873787518586,59.247873787518586 0 0,0 0.8549552099899688,0.5560866507038292 l -21.12947613380342 31.88173595613926" fill="red" stroke="none" /><path d="M 111.90073688211348 82.69761687909136 l 15.019437254376955 -21.836635849521205 a47.50324811533034,47.50324811533034 0 0,0 0.6697253588371873,0.4691854131935725 l -15.393093752797792 21.574865593563697" fill="red" stroke="none" /><path d="M 112.48926042617603 83.11751280151076 l 22.87738407631526 -30.924740987370814 a59.467054830220825,59.467054830220825 0 0,0 0.8176828955660663,0.6158618045961524 l -23.40631312563971 30.526362593268814" fill="red" stroke="none" /><path d="M 113.06298171725822 83.55741782278167 l 24.01549145699392 -30.22867981865227 a59.60721323146159,59.60721323146159 0 0,0 0.7978754790669309,0.645159815551815 l -24.53227033462534 29.810813905836326" fill="red" stroke="none" /><path d="M 113.6212207817346 84.01681056812373 l 24.941295416334192 -29.266205702371067 a59.45229529245751,59.45229529245751 0 0,0 0.7731805013835207,0.6704945117526105 l -25.441369716364477 28.832546197198784" fill="red" stroke="none" /><path d="M 114.42810811169701 84.74124197986012 l 34.41922905158028 -36.400800664367885 a71.09692223592377,71.09692223592377 0 0,0 0.8819971223829999,0.8484805329270416 l -35.0407094175757 35.80293704467854" fill="red" stroke="none" /><path d="M 115.4437574822437 85.77008943001954 l 28.38222054633053 -26.151437602934294 a59.59336901386963,59.59336901386963 0 0,0 0.6886052365871788,0.7603751011658854 l -28.828169423533744 25.659009714498858" fill="red" stroke="none" /><path d="M 116.15771136456269 86.58626213691792 l 29.5814818718598 -24.557824711543297 a59.44672709474835,59.44672709474835 0 0,0 0.6468412753462952,0.7929509202012401 l -29.999821639282505 24.044989621733958" fill="red" stroke="none" /><path d="M 117.45458315368197 88.32363383020206 l 36.23822991645759 -24.241818789045524 a64.59902620103989,64.59902620103989 0 0,0 0.6103173405184704,0.9295551810755809 l -36.650143892333986 23.61444554399227" fill="red" stroke="none" /><line stroke="#e1ed5e" stroke-width="0.3" x1="172.23445277983987" x2="176.4835382374775" y1="55.19839476539836" y2="52.563006222186495" /><path d="M 173.08426987136738 54.67131705675599 a86.0,86.0 0 0,1 12.851231095245387,41.99856678651699" fill="none" id="id15" stroke="none" /><text fill="#e1ed5e" style="font-size:6.75px; font-family:Arial;" text-anchor="middle"><textPath startOffset="22.20632615414155" xlink:href="#id15">March</textPath></text><path d="M 118.03404312379186 89.2402003453031 l 33.33691095815366 -19.8900757059287 a59.81964378789997,59.81964378789997 0 0,0 0.5199760595291583,0.8888076384514859 l -33.674346692153144 19.31328865512332" fill="red" stroke="none" /><path d="M 119.196687751892 91.48605970444005 l 35.27153911591496 -15.643312119603026 a59.58490230228448,59.58490230228448 0 0,0 0.4077573339978343,0.941160145875784 l -35.53558715975548 15.033852829140638" fill="red" stroke="none" /><path d="M 119.47837535516314 92.15188598940014 l 35.38710487255558 -14.257967026559736 a59.151498201141614,59.151498201141614 0 0,0 0.372390933159615,0.9476943062704436 l -35.6272893555969 13.64672371539351" fill="red" stroke="none" /><path d="M 119.85752413597 93.16781622104841 l 59.57257240790998 -20.496551336854747 a84.0,84.0 0 0,0 0.45865082491291975,1.371307588310744 l -59.91656052659467 19.46807064562169" fill="red" stroke="none" /><path d="M 120.37134235888165 94.90015583598534 l 37.82661048833566 -9.469666521965236 a59.99393600386468,59.99393600386468 0 0,0 0.24216752173234352,1.0039407201256438 l -37.984010810328826 8.817140570180186" fill="red" stroke="none" /><path d="M 120.45610955862082 95.25157060432595 l 30.044338563181103 -6.97412281637248 a51.84316243119208,51.84316243119208 0 0,0 0.19430227994761468,0.8710190221567492 l -30.159935230130753 6.455925624665767" fill="red" stroke="none" /><path d="M 120.6074358757038 95.95851677861258 l 24.10865692197258 -4.728134690217031 a45.56791802799354,45.56791802799354 0 0,0 0.14432938478889823,0.7710133447492862 l -24.186472030671336 4.312443268005182" fill="red" stroke="none" /><line stroke="#e1ed5e" stroke-width="0.3" x1="184.98032266829074" x2="189.97916517819016" y1="98.17113171792111" y2="98.06355123074" /><path d="M 185.9800911702706 98.14961562048488 a86.0,86.0 0 0,1 -9.607161424134198,41.387399972396054" fill="none" id="id16" stroke="none" /><text fill="#e1ed5e" style="font-size:6.75px; font-family:Arial;" text-anchor="middle"><textPath startOffset="21.466115282336823" xlink:href="#id16">April</textPath></text><line stroke="#e1ed5e" stroke-width="0.3" x1="174.80103733775053" x2="179.2010983576182" y1="140.37084112569926" y2="142.7455964860345" /><path d="M 175.68104954172406 140.8457921977663 a86.0,86.0 0 0,1 -30.038265399797805,32.042727171017184" fill="none" id="id17" stroke="none" /><text fill="#e1ed5e" style="font-size:6.75px; font-family:Arial;" text-anchor="middle"><textPath startOffset="22.206326154141568" xlink:href="#id17">May</textPath></text><line stroke="#e1ed5e" stroke-width="0.3" x1="143.8653032363475" x2="146.44561519142675" y1="172.8068346515853" y2="177.08958963109032" /><path d="M 144.38136562736335 173.6633856474863 a86.0,86.0 0 0,1 -40.68145358897372,12.25698825130547" fill="none" id="id18" stroke="none" /><text fill="#e1ed5e" style="font-size:6.75px; font-family:Arial;" text-anchor="middle"><textPath startOffset="21.466115282336833" xlink:href="#id18">June</textPath></text><line stroke="#e1ed5e" stroke-width="0.3" x1="102.19456741930631" x2="102.32365962044197" y1="184.97166512339345" y2="189.96999836594603" /><path d="M 102.22038585953345 185.97133177190398 a86.0,86.0 0 0,1 -42.740103519485714,-10.115201625700543" fill="none" id="id19" stroke="none" /><text fill="#e1ed5e" style="font-size:6.75px; font-family:Arial;" text-anchor="middle"><textPath startOffset="22.20632615414155" xlink:href="#id19">July</textPath></text><line stroke="#e1ed5e" stroke-width="0.3" x1="58.666819895761336" x2="56.23545636021788" y1="174.27360380694188" y2="178.64263932499728" /><path d="M 58.180547188652646 175.14741091055294 a86.0,86.0 0 0,1 -31.652253787137756,-30.449443065178592" fill="none" id="id20" stroke="none" /><text fill="#e1ed5e" style="font-size:6.75px; font-family:Arial;" text-anchor="middle"><textPath startOffset="22.20632615414155" xlink:href="#id20">August</textPath></text><line stroke="#e1ed5e" stroke-width="0.3" x1="26.63291911575756" x2="22.317208475507996" y1="142.92168965132927" y2="145.44649492493687" /><path d="M 25.769776987707644 143.4266507060508 a86.0,86.0 0 0,1 -11.730757126820373,-40.83630448921669" fill="none" id="id21" stroke="none" /><text fill="#e1ed5e" style="font-size:6.75px; font-family:Arial;" text-anchor="middle"><textPath startOffset="21.46611528233685" xlink:href="#id21">September</textPath></text><line stroke="#e1ed5e" stroke-width="0.3" x1="15.007084014347285" x2="10.007500721073583" y1="101.09737516637583" y2="101.16192664675087" /><path d="M 14.007167355692545 101.11028546245083 a86.0,86.0 0 0,1 10.666146001902534,-42.60595125391555" fill="none" id="id22" stroke="none" /><text fill="#e1ed5e" style="font-size:6.75px; font-family:Arial;" text-anchor="middle"><textPath startOffset="22.20632615414155" xlink:href="#id22">October</textPath></text><line stroke="#e1ed5e" stroke-width="0.3" x1="26.266209847984243" x2="21.928928074336255" y1="57.711370442889674" y2="55.22380399835377" /><path d="M 25.398753493254645 57.213857153982495 a86.0,86.0 0 0,1 29.58750427330803,-30.492523968695096" fill="none" id="id23" stroke="none" /><text fill="#e1ed5e" style="font-size:6.75px; font-family:Arial;" text-anchor="middle"><textPath startOffset="21.46611528233685" xlink:href="#id23">November</textPath></text><line stroke="#e1ed5e" stroke-width="0.3" x1="56.762969772571076" x2="54.21961505331055" y1="26.818313649435495" y2="22.513508569990535" /><path d="M 56.25429882871897 25.957352633546506 a86.0,86.0 0 0,1 42.265352541879196,-11.944610805530505" fill="none" id="id24" stroke="none" /><text fill="#e1ed5e" style="font-size:6.75px; font-family:Arial;" text-anchor="middle"><textPath startOffset="22.20632615414155" xlink:href="#id24">December</textPath></text></svg>