<?xml version="1.0" encoding="utf-8" ?>
<svg baseProfile="full" height="200mm" version="1.1" viewBox="0,0,200,200" width="200mm" xmlns="http://www.w3.org/2000/svg" xmlns:ev="http://www.w3.org/2001/xml-events" xmlns:xlink="http://www.w3.org/1999/xlink"><defs /><rect fill="#1a1a1a" height="200" width="200" x="0" y="0" /><rect fill="#1a1a1a" height="200" width="180" x="10" y="0" /><text alignment-baseline="middle" fill="#e1ed5e" style="dominant-baseline: central; font-size:9.0px; font-family:Arial;" text-anchor="middle" x="100.0" y="100.0">2025</text><line stroke="#e1ed5e" stroke-width="0.3" x1="100.0" x2="100.0" y1="15.0" y2="10.0" /><path d="M 100.0 14.0 a86.0,86.0 0 0,1 42.46469731375804,11.215312516191453" fill="none" id="id1" stroke="none" /><text fill="#e1ed5e" style="font-size:6.75px; font-family:Arial;" text-anchor="middle"><textPath startOffset="22.20632615414155" xlink:href="#id1">January</textPath></text><line stroke="#e1ed5e" stroke-width="0.3" x1="143.23703022742887" x2="145.7803849466894" y1="26.81831364943548" y2="22.513508569990506" /><path d="M 143.74570117128098 25.957352633546492 a86.0,86.0 0 0,1 28.547481713284135,27.462654790039103" fill="none" id="id2" stroke="none" /><text fill="#e1ed5e" style="font-size:6.75px; font-family:Arial;" text-anchor="middle"><textPath startOffset="19.985693538727396" xlink:href="#id2">February</textPath></text><line stroke="#e1ed5e" stroke-width="0.3" x1="172.23445277983987" x2="176.4835382374775" y1="55.19839476539836" y2="52.563006222186495" /><path d="M 173.08426987136738 54.67131705675599 a86.0,86.0 0 0,1 12.851231095245387,41.99856678651699" fill="none" id="id3" stroke="none" /><text fill="#e1ed5e" style="font-size:6.75px; font-family:Arial;" text-anchor="middle"><textPath startOffset="22.20632615414155" xlink:href="#id3">March</textPath></text><line stroke="#e1ed5e" stroke-width="0.3" x1="184.98032266829074" x2="189.97916517819016" y1="98.17113171792111" y2="98.06355123074" /><path d="M 185.9800911702706 98.14961562048488 a86.0,86.0 0 0,1 -9.607161424134198,41.387399972396054" fill="none" id="id4" stroke="none" /><text fill="#e1ed5e" style="font-size:6.75px; font-family:Arial;" text-anchor="middle"><textPath startOffset="21.466115282336823" xlink:href="#id4">April</textPath></text><line stroke="#e1ed5e" stroke-width="0.3" x1="174.80103733775053" x2="179.2010983576182" y1="140.37084112569926" y2="142.7455964860345" /><path d="M 175.68104954172406 140.8457921977663 a86.0,86.0 0 0,1 -30.038265399797805,32.042727171017184" fill="none" id="id5" stroke="none" /><text fill="#e1ed5e" style="font-size:6.75px; font-family:Arial;" text-anchor="middle"><textPath startOffset="22.206326154141568" xlink:href="#id5">May</textPath></text><line stroke="#e1ed5e" stroke-width="0.3" x1="143.8653032363475" x2="146.44561519142675" y1="172.8068346515853" y2="177.08958963109032" /><path d="M 144.38136562736335 173.6633856474863 a86.0,86.0 0 0,1 -40.68145358897372,12.25698825130547" fill="none" id="id6" stroke="none" /><text fill="#e1ed5e" style="font-size:6.75px; font-family:Arial;" text-anchor="middle"><textPath startOffset="21.466115282336833" xlink:href="#id6">June</textPath></text><line stroke="#e1ed5e" stroke-width="0.3" x1="102.19456741930631" x2="102.32365962044197" y1="184.97166512339345" y2="189.96999836594603" /><path d="M 102.22038585953345 185.97133177190398 a86.0,86.0 0 0,1 -42.740103519485714,-10.115201625700543" fill="none" id="id7" stroke="none" /><text fill="#e1ed5e" style="font-size:6.75px; font-family:Arial;" text-anchor="middle"><textPath startOffset="22.20632615414155" xlink:href="#id7">July</textPath></text><line stroke="#e1ed5e" stroke-width="0.3" x1="58.666819895761336" x2="56.23545636021788" y1="174.27360380694188" y2="178.64263932499728" /><path d="M 58.180547188652646 175.14741091055294 a86.0,86.0 0 0,1 -31.652253787137756,-30.449443065178592" fill="none" id="id8" stroke="none" /><text fill="#e1ed5e" style="font-size:6.75px; font-family:Arial;" text-anchor="middle"><textPath startOffset="22.20632615414155" xlink:href="#id8">August</textPath></text><line stroke="#e1ed5e" stroke-width="0.3" x1="26.63291911575756" x2="22.317208475507996" y1="142.92168965132927" y2="145.44649492493687" /><path d="M 25.769776987707644 143.4266507060508 a86.0,86.0 0 0,1 -11.730757126820373,-40.83630448921669" fill="none" id="id9" stroke="none" /><text fill="#e1ed5e" style="font-size:6.75px; font-family:Arial;" text-anchor="middle"><textPath startOffset="21.46611528233685" xlink:href="#id9">September</textPath></text><line stroke="#e1ed5e" stroke-width="0.3" x1="15.007084014347285" x2="10.007500721073583" y1="101.09737516637583" y2="101.16192664675087" /><path d="M 14.007167355692545 101.11028546245083 a86.0,86.0 0 0,1 10.666146001902534,-42.60595125391555" fill="none" id="id10" stroke="none" /><text fill="#e1ed5e" style="font-size:6.75px; font-family:Arial;" text-anchor="middle"><textPath startOffset="22.20632615414155" xlink:href="#id10">October</textPath></text><line stroke="#e1ed5e" stroke-width="0.3" x1="26.266209847984243" x2="21.928928074336255" y1="57.711370442889674" y2="55.22380399835377" /><path d="M 25.398753493254645 57.213857153982495 a86.0,86.0 0 0,1 29.58750427330803,-30.492523968695096" fill="none" id="id11" stroke="none" /><text fill="#e1ed5e" style="font-size:6.75px; font-family:Arial;" text-anchor="middle"><textPath startOffset="21.46611528233685" xlink:href="#id11">November</textPath></text><path d="M 84.80347519578584 85.50635884689758 l -10.729352826372844 -10.23308892486717 a35.82683786304531,35.82683786304531 0 0,0 0.4294712099353671,-0.4426078334235452 l 10.55161735273436 10.416260953840839" fill="#ff0000" stroke="none" /><path d="M 85.05521093208273 85.24692304244772 l -16.157947103888137 -15.950672573322688 a43.70469577319625,43.70469577319625 0 0,0 0.5331227819843727,-0.5308333833326696 l 15.880988521736452 16.226441807305466" fill="#ff8e0d" stroke="none" /><path d="M 85.31137513191541 84.99185889309783 l -18.253468689441913 -18.650529661003482 a47.0965778567307,47.0965778567307 0 0,0 0.5842594142947738,-0.562057093643439 l 17.92972603153471 18.961969841409235" fill="#ffc612" stroke="none" /><path d="M 85.83668400450813 84.49514656593479 l -11.885326689738292 -13.01109488759775 a38.62241699358739,38.62241699358739 0 0,0 0.49471456208388787,-0.44415961846083846 l 11.659601140058433 13.213753514827868" fill="#ff3404" stroke="none" /><path d="M 86.65592168130627 83.78471172551755 l -20.00017292408713 -24.30355711036612 a52.474907548874796,52.474907548874796 0 0,0 0.7024056272681307,-0.5679631682136901 l 19.5788638982545 24.644226375843946" fill="#e3ff1b" stroke="none" /><path d="M 87.22198572758235 83.33499621200491 l -37.466939097344174 -48.864140285835305 a82.5749602614398,82.5749602614398 0 0,0 1.1354208275589928,-0.8551754275750704 l 36.62027211602679 49.50183230291623" fill="#4be3ff" stroke="none" /><path d="M 88.39885842347998 82.49532879139004 l -11.06221987872091 -16.691505791660607 a41.02446189634587,41.02446189634587 0 0,0 0.5919887954308987,-0.38504597978790156 l 10.773264057505724 16.879450695608043" fill="#ff5f08" stroke="none" /><path d="M 88.70189139769569 82.29822771554957 l -10.552084549568699 -16.532908683904466 a40.61335152113402,40.61335152113402 0 0,0 0.5925310982880536,-0.3710429193890734 l 10.265934298908403 16.712095944616472" fill="#ff5808" stroke="none" /><line stroke="#e1ed5e" stroke-width="0.3" x1="56.762969772571076" x2="54.21961505331055" y1="26.818313649435495" y2="22.513508569990535" /><path d="M 56.25429882871897 25.957352633546506 a86.0,86.0 0 0,1 42.265352541879196,-11.944610805530505" fill="none" id="id12" stroke="none" /><text fill="#e1ed5e" style="font-size:6.75px; font-family:Arial;" text-anchor="middle"><textPath startOffset="22.20632615414155" xlink:href="#id12">December</textPath></text><path d="M 90.91171255644093 81.06846463323043 l -6.613263531150667 -13.775888274580906 a36.28104552333325,36.28104552333325 0 0,0 0.5653308862888304,-0.26543043137218947 l 6.375154433562229 13.887683688593103" fill="#ff0901" stroke="none" /><path d="M 91.90106846888425 80.62456947434976 l -10.072397819604895 -24.096640826099144 a47.11706907251289,47.11706907251289 0 0,0 0.750992525537548,-0.30634870746610016 l 9.656121424478966 24.26645041974882" fill="#ffc712" stroke="none" /><path d="M 95.33964822691252 79.52364482259891 l -6.832648351416774 -30.020852772065524 a51.78858042612801,51.78858042612801 0 0,0 0.8709292372975074,-0.19035139817493388 l 6.314876389965745 30.134017668336327" fill="#edff1a" stroke="none" /><path d="M 95.692805502759 79.44645832069477 l -6.385703339119665 -30.47199744899996 a52.133901709665366,52.133901709665366 0 0,0 0.8799050462592424,-0.17650067456270244 l 5.860231883393286 30.577402079639874" fill="#e8ff1a" stroke="none" /><path d="M 96.40284397218896 79.31037775812273 l -10.791468083433102 -62.06886672563182 a84.0,84.0 0 0,0 1.4266831754444573,-0.235414948241492 l 9.72145570184976 62.24542793681294" fill="#4dd2ff" stroke="none" /><path d="M 97.83486435360386 79.11191278185805 l -3.0816533724021244 -29.73016703408863 a50.88945331354268,50.88945331354268 0 0,0 0.872087406840882,-0.08281520747192678 l 2.5694408384710057 29.778807786075735" fill="#fbff18" stroke="none" /><path d="M 98.19473922651362 79.07773832637324 l -1.2757359136694197 -14.785277010527302 a35.84021288255169,35.84021288255169 0 0,0 0.6151030637244803,-0.047743836119003964 l 1.0210426605826053 14.805046108834768" fill="#ff0000" stroke="none" /><path d="M 99.27714615592234 79.0124445844662 l -1.5606365726428608 -45.31199054996209 a66.33885832386744,66.33885832386744 0 0,0 1.1415760214202946,-0.029483540655962384 l 0.7804339160276873 45.33214088276041" fill="#31ff3d" stroke="none" /></svg>