<?xml version="1.0" encoding="utf-8" ?>
<svg baseProfile="full" height="200mm" version="1.1" viewBox="0,0,200,200" width="200mm" xmlns="http://www.w3.org/2000/svg" xmlns:ev="http://www.w3.org/2001/xml-events" xmlns:xlink="http://www.w3.org/1999/xlink"><defs /><rect fill="#1a1a1a" height="200" width="200" x="0" y="0" /><rect fill="#1a1a1a" height="200" width="180" x="10" y="0" /><text alignment-baseline="middle" fill="#e1ed5e" style="dominant-baseline: central; font-size:9.0px; font-family:Arial;" text-anchor="middle" x="100.0" y="100.0">2026</text><line stroke="#e1ed5e" stroke-width="0.3" x1="100.0" x2="100.0" y1="15.0" y2="10.0" /><path d="M 100.0 14.0 a86.0,86.0 0 0,1 42.46469731375804,11.215312516191453" fill="none" id="id13" stroke="none" /><text fill="#e1ed5e" style="font-size:6.75px; font-family:Arial;" text-anchor="middle"><textPath startOffset="22.20632615414155" xlink:href="#id13">January</textPath></text><path d="M 100.0 79.0 l 0.0 -15.496369453924913 a36.49636945392491,36.49636945392491 0 0,0 0.6282250058053354,0.005407330962679257 l -0.26674452653280695 15.494073499570792" fill="#ff5507" stroke="none" /><path d="M 100.72285384407766 79.0124445844662 l 0.5694231815162448 -16.53280351882282 a37.5426066552901,37.5426066552901 0 0,0 0.6456598366456816,0.02780347074750749 l -0.853923850551258 16.52055232155112" fill="#ff6609" stroke="none" /><path d="M 101.44485096284872 79.0497635885617 l 1.236837216222094 -17.934051849354105 a38.97665102389078,38.97665102389078 0 0,0 0.668931781657647,0.051921980626907636 l -1.545359187242082 17.910104606538734" fill="#ff7d0b" stroke="none" /><path d="M 101.80526077348638 79.07773832637324 l 2.6355523688824376 -30.54501439690281 a51.65850682593857,51.65850682593857 0 0,0 0.8852665989853521,0.08406673056835237 l -3.160944094958034 30.49512212181928" fill="#c6ff1e" stroke="none" /><path d="M 102.52436894288641 79.15227682838746 l 3.1834295495323937 -26.290633218255774 a47.48266638225256,47.48266638225256 0 0,0 0.8105636452006275,0.10523442447942424 l -3.6355079232408674 26.231940470612212" fill="#fffe18" stroke="none" /><path d="M 103.95276090670814 79.375362276772 l 6.052237934430795 -31.57924745728367 a53.15398037542662,53.15398037542662 0 0,0 0.8971217197893531,0.1799541773067875 l -6.594926063687273 31.470389323899674" fill="#b2ff20" stroke="none" /><path d="M 104.307194497241 79.44645832069477 l 3.5062658003500324 -16.73158254459585 a38.09502133105802,38.09502133105802 0 0,0 0.6406444741233188,0.14002006840512202 l -3.793752998626879 16.668748978094857" fill="#ff6f0a" stroke="none" /><path d="M 105.01212808612495 79.60689891045804 l 4.472568791301773 -18.19776867703012 a39.73933447098976,39.73933447098976 0 0,0 0.6628731254647855,0.16898111916679118 l -4.785150805451584 18.11808456169446" fill="#ff890c" stroke="none" /><path d="M 105.36241919743992 79.69619591428918 l 4.435891989691134 -16.79568093950226 a38.371587030716725,38.371587030716725 0 0,0 0.6371549234022382,0.17415850923250187 l -4.724344802317083 16.716835889443466" fill="#ff730a" stroke="none" /><path d="M 105.71112130821622 79.79150937346287 l 4.597265855915405 -16.26717398268375 a37.90431313993174,37.90431313993174 0 0,0 0.6263413071443216,0.18284620296494428 l -4.876597380783154 16.185629450800104" fill="#ff6c09" stroke="none" /><path d="M 106.74666289553966 80.11325718540242 l 10.324629685884801 -30.433305828114452 a53.13695819112628,53.13695819112628 0 0,0 0.863647622855659,0.3013096974487333 l -10.846959312803733 30.25107527749351" fill="#b2ff20" stroke="none" /><path d="M 107.4271985657038 80.35727306442388 l 9.26333893466884 -24.49877105017836 a47.19158703071673,47.19158703071673 0 0,0 0.7573504428445197,0.29384020567859326 l -9.683672542513026 24.33568814060922" fill="#fff917" stroke="none" /><path d="M 109.08828744355905 81.06846463323043 l 13.862249036956001 -28.87602967400517 a53.031032423208195,53.031032423208195 0 0,0 0.8195282743539269,0.4021389650532534 l -14.357248578320359 28.633135548817084" fill="#b4ff20" stroke="none" /><path d="M 109.41281617654863 81.2277094730956 l 13.495263779536192 -26.914050763876048 a51.10794368600683,51.10794368600683 0 0,0 0.783021184851294,0.40109386358865323 l -13.956545451976242 26.677764374974895" fill="#ceff1d" stroke="none" /><line stroke="#e1ed5e" stroke-width="0.3" x1="143.23703022742887" x2="145.7803849466894" y1="26.81831364943548" y2="22.513508569990506" /><path d="M 143.74570117128098 25.957352633546492 a86.0,86.0 0 0,1 28.547481713284135,27.462654790039103" fill="none" id="id14" stroke="none" /><text fill="#e1ed5e" style="font-size:6.75px; font-family:Arial;" text-anchor="middle"><textPath startOffset="19.985693538727396" xlink:href="#id14">February</textPath></text><path d="M 110.68208982089419 81.91981866633111 l 15.324925268261428 -25.93850383406501 a51.12738481228669,51.12738481228669 0 0,0 0.7538560853796282,0.4541898564879151 l -15.769143419858693 25.67086736811848" fill="#cdff1d" stroke="none" /><path d="M 110.99172775467656 82.1063720568725 l 10.605407289009845 -17.264730027009186 a41.26192406143345,41.26192406143345 0 0,0 0.6019934889853946,0.37696826757566526 l -10.901019930367502 17.079617418110576" fill="#ffa10e" stroke="none" /><path d="M 111.2981086023043 82.29822771554956 l 16.11285092464464 -25.245466118389338 a50.94924914675768,50.94924914675768 0 0,0 0.7352048810952241,0.4781977057185804 l -16.545022831524143 24.964369488511228" fill="#d0ff1d" stroke="none" /><path d="M 111.90073688211348 82.69761687909136 l 11.760676446339334 -17.09875040943446 a41.75284982935153,41.75284982935153 0 0,0 0.5886532699100506,0.4123892339242254 l -12.053260855833036 16.8937763327463" fill="#ffa80f" stroke="none" /><path d="M 112.48926042617603 83.11751280151076 l 17.913687943386297 -24.215013304398504 a51.12087457337884,51.12087457337884 0 0,0 0.702921388395163,0.529425816650583 l -18.327855485539843 23.903070898242074" fill="#ceff1d" stroke="none" /><path d="M 113.06298171725822 83.55741782278167 l 18.804860657693673 -23.669976226543007 a51.2306228668942,51.2306228668942 0 0,0 0.6857501893956298,0.5544956290955193 l -19.209514245653793 23.34277450018336" fill="#ccff1d" stroke="none" /><path d="M 113.6212207817346 84.01681056812373 l 19.52979333220968 -22.91632970318469 a51.10931740614335,51.10931740614335 0 0,0 0.6646795966927916,0.5764035963904796 l -19.921366727549238 22.57676111337454" fill="#ceff1d" stroke="none" /><path d="M 114.42810811169701 84.74124197986012 l 26.951303804016636 -28.50293468062983 a60.22741467576792,60.22741467576792 0 0,0 0.7471547960448046,0.718762321825133 l -27.43794184367386 28.034789272042396" fill="#59ff2a" stroke="none" /><path d="M 115.4437574822437 85.77008943001954 l 22.22414242429514 -20.477371491739053 a51.21978242320819,51.21978242320819 0 0,0 0.5918479014883079,0.6535332350932751 l -22.573333966399485 20.09178546937623" fill="#ccff1d" stroke="none" /><path d="M 116.15771136456269 86.58626213691792 l 23.16320053847632 -19.229524100459262 a51.10495733788396,51.10495733788396 0 0,0 0.5560742768608228,0.6816813124687593 l -23.49077330741355 18.8279586183824" fill="#ceff1d" stroke="none" /><path d="M 117.45458315368197 88.32363383020206 l 28.375636837612767 -18.982081846353488 a55.13936433447098,55.13936433447098 0 0,0 0.5209445432468703,0.793434279315754 l -28.698178016217565 18.49082950306006" fill="#98ff23" stroke="none" /><line stroke="#e1ed5e" stroke-width="0.3" x1="172.23445277983987" x2="176.4835382374775" y1="55.19839476539836" y2="52.563006222186495" /><path d="M 173.08426987136738 54.67131705675599 a86.0,86.0 0 0,1 12.851231095245387,41.99856678651699" fill="none" id="id15" stroke="none" /><text fill="#e1ed5e" style="font-size:6.75px; font-family:Arial;" text-anchor="middle"><textPath startOffset="22.20632615414155" xlink:href="#id15">March</textPath></text><path d="M 118.03404312379186 89.2402003453031 l 26.103815799424453 -15.57453457868089 a51.39696245733788,51.39696245733788 0 0,0 0.4467627741999439,0.7636624013887308 l -26.368038248094724 15.122892764938264" fill="#caff1d" stroke="none" /><path d="M 119.196687751892 91.48605970444005 l 27.61868852215431 -12.2491894517643 a51.21315273037543,51.21315273037543 0 0,0 0.3504669440762204,0.8089260270991662 l -27.82544617607321 11.771964280078532" fill="#ccff1d" stroke="none" /><path d="M 119.47837535516314 92.15188598940014 l 27.709180026536778 -11.164422084660847 a50.87378412969284,50.87378412969284 0 0,0 0.3202782097081608,0.8150731092929622 l -27.897251786126642 10.685799970472102" fill="#d1ff1c" stroke="none" /><path d="M 119.85752413597 93.16781622104841 l 46.647137126351325 -16.049423454150055 a70.33091723549488,70.33091723549488 0 0,0 0.3840158715112144,1.1481585773558216 l -46.916490291634304 15.24409177387192" fill="#39ff8a" stroke="none" /><path d="M 120.37134235888165 94.90015583598534 l 29.61938716348237 -7.415037070520695 a51.5334385665529,51.5334385665529 0 0,0 0.2080164419151324,0.8623624464599721 l -29.74263640565832 6.904089392401317" fill="#c8ff1d" stroke="none" /><path d="M 120.45610955862082 95.25157060432595 l 23.525631413578957 -5.460950403883291 a45.15113481228669,45.15113481228669 0 0,0 0.16922132109307927,0.7585860014936828 l -23.616147121674075 5.0551862328396435" fill="#ffdc14" stroke="none" /><path d="M 120.6074358757038 95.95851677861258 l 18.877812052012228 -3.702273350497915 a40.237427474402736,40.237427474402736 0 0,0 0.12744587429473508,0.6808209565793084 l -18.938743650216825 3.3767743164560438" fill="#ff910d" stroke="none" /><path d="M 120.73433829027371 96.67025291283417 l 29.689142810689138 -4.767807653679287 a51.06953924914676,51.06953924914676 0 0,0 0.1319153109065035,0.8691570789224976 l -29.766814015034942 4.256051462364707" fill="#ceff1d" stroke="none" /><path d="M 120.83666639777658 97.38593545837742 l 38.58069384702878 -4.840141981035697 a59.88311860068259,59.88311860068259 0 0,0 0.11950858864756315,1.02387660486717 l -38.65829278867994 4.175321637843674" fill="#5dff2a" stroke="none" /><path d="M 120.94382443527127 98.46500227214037 l 30.185346534525934 -2.2123198410277753 a51.266309726962454,51.266309726962454 0 0,0 0.05692857353415947,0.8806598353903884 l -30.21895569906451 1.6924009413843517" fill="#ccff1d" stroke="none" /><path d="M 120.96714384426684 98.82574320788733 l 10.404438247840643 -0.5826965451941798 a31.420742320819112,31.420742320819112 0 0,0 0.025595025130204237,0.54027052731945 l -10.412926881204344 0.40351491125172995" fill="#ff0000" stroke="none" /><line stroke="#e1ed5e" stroke-width="0.3" x1="184.98032266829074" x2="189.97916517819016" y1="98.17113171792111" y2="98.06355123074" /><path d="M 185.9800911702706 98.14961562048488 a86.0,86.0 0 0,1 -9.607161424134198,41.387399972396054" fill="none" id="id16" stroke="none" /><text fill="#e1ed5e" style="font-size:6.75px; font-family:Arial;" text-anchor="middle"><textPath startOffset="21.466115282336823" xlink:href="#id16">April</textPath></text><path d="M 120.9904718944345 100.63252640178507 l 30.23580165616306 0.9111249581640303 a51.24952645051195,51.24952645051195 0 0,0 -0.034161145842524485,0.8815473825563064 l -30.21563837746933 -1.431449587734343" fill="#ccff1d" stroke="none" /><path d="M 120.70491114924044 103.5080841355445 l 62.114733447721314 10.524252406633499 a84.0,84.0 0 0,0 -0.25381423064324515,1.4235249970671267 l -61.924372774738885 -11.591896154433844" fill="#4dd2ff" stroke="none" /><path d="M 120.49622156327973 104.57218783832717 l 16.339790693873 3.6449933984507012 a37.74140784982935,37.74140784982935 0 0,0 -0.14690291993472582,0.632853934272182 l -16.27462720800772 -3.9257159900714482" fill="#ff6909" stroke="none" /><line stroke="#e1ed5e" stroke-width="0.3" x1="174.80103733775053" x2="179.2010983576182" y1="140.37084112569926" y2="142.7455964860345" /><path d="M 175.68104954172406 140.8457921977663 a86.0,86.0 0 0,1 -30.038265399797805,32.042727171017184" fill="none" id="id17" stroke="none" /><text fill="#e1ed5e" style="font-size:6.75px; font-family:Arial;" text-anchor="middle"><textPath startOffset="22.206326154141568" xlink:href="#id17">May</textPath></text><line stroke="#e1ed5e" stroke-width="0.3" x1="143.8653032363475" x2="146.44561519142675" y1="172.8068346515853" y2="177.08958963109032" /><path d="M 144.38136562736335 173.6633856474863 a86.0,86.0 0 0,1 -40.68145358897372,12.25698825130547" fill="none" id="id18" stroke="none" /><text fill="#e1ed5e" style="font-size:6.75px; font-family:Arial;" text-anchor="middle"><textPath startOffset="21.466115282336833" xlink:href="#id18">June</textPath></text><line stroke="#e1ed5e" stroke-width="0.3" x1="102.19456741930631" x2="102.32365962044197" y1="184.97166512339345" y2="189.96999836594603" /><path d="M 102.22038585953345 185.97133177190398 a86.0,86.0 0 0,1 -42.740103519485714,-10.115201625700543" fill="none" id="id19" stroke="none" /><text fill="#e1ed5e" style="font-size:6.75px; font-family:Arial;" text-anchor="middle"><textPath startOffset="22.20632615414155" xlink:href="#id19">July</textPath></text><line stroke="#e1ed5e" stroke-width="0.3" x1="58.666819895761336" x2="56.23545636021788" y1="174.27360380694188" y2="178.64263932499728" /><path d="M 58.180547188652646 175.14741091055294 a86.0,86.0 0 0,1 -31.652253787137756,-30.449443065178592" fill="none" id="id20" stroke="none" /><text fill="#e1ed5e" style="font-size:6.75px; font-family:Arial;" text-anchor="middle"><textPath startOffset="22.20632615414155" xlink:href="#id20">August</textPath></text><line stroke="#e1ed5e" stroke-width="0.3" x1="26.63291911575756" x2="22.317208475507996" y1="142.92168965132927" y2="145.44649492493687" /><path d="M 25.769776987707644 143.4266507060508 a86.0,86.0 0 0,1 -11.730757126820373,-40.83630448921669" fill="none" id="id21" stroke="none" /><text fill="#e1ed5e" style="font-size:6.75px; font-family:Arial;" text-anchor="middle"><textPath startOffset="21.46611528233685" xlink:href="#id21">September</textPath></text><line stroke="#e1ed5e" stroke-width="0.3" x1="15.007084014347285" x2="10.007500721073583" y1="101.09737516637583" y2="101.16192664675087" /><path d="M 14.007167355692545 101.11028546245083 a86.0,86.0 0 0,1 10.666146001902534,-42.60595125391555" fill="none" id="id22" stroke="none" /><text fill="#e1ed5e" style="font-size:6.75px; font-family:Arial;" text-anchor="middle"><textPath startOffset="22.20632615414155" xlink:href="#id22">October</textPath></text><line stroke="#e1ed5e" stroke-width="0.3" x1="26.266209847984243" x2="21.928928074336255" y1="57.711370442889674" y2="55.22380399835377" /><path d="M 25.398753493254645 57.213857153982495 a86.0,86.0 0 0,1 29.58750427330803,-30.492523968695096" fill="none" id="id23" stroke="none" /><text fill="#e1ed5e" style="font-size:6.75px; font-family:Arial;" text-anchor="middle"><textPath startOffset="21.46611528233685" xlink:href="#id23">November</textPath></text><line stroke="#e1ed5e" stroke-width="0.3" x1="56.762969772571076" x2="54.21961505331055" y1="26.818313649435495" y2="22.513508569990535" /><path d="M 56.25429882871897 25.957352633546506 a86.0,86.0 0 0,1 42.265352541879196,-11.944610805530505" fill="none" id="id24" stroke="none" /><text fill="#e1ed5e" style="font-size:6.75px; font-family:Arial;" text-anchor="middle"><textPath startOffset="22.20632615414155" xlink:href="#id24">December</textPath></text></svg>