<?xml version="1.0" encoding="utf-8" ?>
<svg baseProfile="full" height="200mm" version="1.1" viewBox="0,0,200,200" width="200mm" xmlns="http://www.w3.org/2000/svg" xmlns:ev="http://www.w3.org/2001/xml-events" xmlns:xlink="http://www.w3.org/1999/xlink"><defs /><rect fill="#1a1a1a" height="200" width="200" x="0" y="0" /><rect fill="#1a1a1a" height="200" width="180" x="10" y="0" /><text alignment-baseline="middle" fill="#e1ed5e" style="dominant-baseline: central; font-size:9.0px; font-family:Arial;" text-anchor="middle" x="100.0" y="100.0">2026</text><line stroke="#e1ed5e" stroke-width="0.3" x1="100.0" x2="100.0" y1="15.0" y2="10.0" /><path d="M 100.0 14.0 a86.0,86.0 0 0,1 42.46469731375804,11.215312516191453" fill="none" id="id13" stroke="none" /><text fill="#e1ed5e" style="font-size:6.75px; font-family:Arial;" text-anchor="middle"><textPath startOffset="22.20632615414155" xlink:href="#id13">January</textPath></text><path d="M 100.0 79.0 l 0.0 -24.88747432545803 a45.88747432545803,45.88747432545803 0 0,0 0.789877438655829,0.006798724487717895 l -0.42839695938330064 24.883786977578872" fill="red" stroke="none" /><path d="M 100.72285384407766 79.0124445844662 l 0.9145048362742036 -26.55200783163639 a47.567751861737364,47.567751861737364 0 0,0 0.8180728413093281,0.03522793740871348 l -1.3714185099728633 26.532332167703483" fill="red" stroke="none" /><path d="M 101.44485096284872 79.0497635885617 l 1.9863849113188226 -28.802440228294014 a49.87085534098989,49.87085534098989 0 0,0 0.855902168084964,0.0664344810762479 l -2.4818772687661275 28.763980485029304" fill="red" stroke="none" /><path d="M 101.80526077348638 79.07773832637324 l 4.232748974460503 -49.05589427471506 a70.23816534937932,70.23816534937932 0 0,0 1.2036643251677284,0.11430243119371027 l -5.076538426718476 48.97576629900617" fill="red" stroke="none" /><path d="M 102.52436894288641 79.15227682838746 l 5.112650509298819 -42.22327437176917 a63.53168341253298,63.53168341253298 0 0,0 1.0845320369759741,0.1408033846773565 l -5.838697274782638 42.129012663927675" fill="red" stroke="none" /><path d="M 103.95276090670814 79.375362276772 l 9.72001323616864 -50.7168929243213 a72.63992530211837,72.63992530211837 0 0,0 1.2260014067080773,0.24592434856322448 l -10.591581052343843 50.542064619680865" fill="red" stroke="none" /><path d="M 104.307194497241 79.44645832069477 l 5.63113188181902 -26.871250859177444 a48.454940703037096,48.454940703037096 0 0,0 0.8148673742850914,0.17809844632568822 l -6.0928419802576395 26.770338914755886" fill="red" stroke="none" /><path d="M 105.01212808612495 79.60689891045804 l 7.183033502997372 -29.22597464372547 a51.095739967325386,51.095739967325386 0 0,0 0.8523039779340662,0.2172712613150851 l -7.685046369616463 29.098000386241516" fill="red" stroke="none" /><path d="M 105.36241919743992 79.69619591428918 l 7.12412983777832 -26.974194142911056 a48.89911065975008,48.89911065975008 0 0,0 0.8119630048637235,0.221940161309459 l -7.587390731865755 26.8475674407753" fill="red" stroke="none" /><path d="M 105.71112130821622 79.79150937346287 l 7.383299442916977 -26.125401568769433 a48.14865959477997,48.14865959477997 0 0,0 0.7956217087092105,0.23226379415598628 l -7.831911369349614 25.994439445694745" fill="red" stroke="none" /><path d="M 106.74666289553966 80.11325718540242 l 16.581558473506743 -48.87648811471609 a72.61258733912015,72.61258733912015 0 0,0 1.180189656684238,0.4117449975857618 l -17.420430134254254 48.58382226395812" fill="red" stroke="none" /><path d="M 107.4271985657038 80.35727306442388 l 14.877104639899708 -39.345508464381666 a63.06420424526363,63.06420424526363 0 0,0 1.012080881740634,0.39267165849547486 l -15.552168686640009 39.083594101995644" fill="red" stroke="none" /><path d="M 109.08828744355905 81.06846463323043 l 22.26304477484997 -46.375471962624644 a72.44246847112956,72.44246847112956 0 0,0 1.1195077384558294,0.5493375852915481 l -23.05802378031623 45.985379217198265" fill="red" stroke="none" /><path d="M 109.41281617654863 81.2277094730956 l 21.673659228834627 -43.22449521945199 a69.35395011107238,69.35395011107238 0 0,0 1.0625669567871523,0.5442880655908886 l -22.414486673210536 42.845014628548604" fill="red" stroke="none" /><line stroke="#e1ed5e" stroke-width="0.3" x1="143.23703022742887" x2="145.7803849466894" y1="26.81831364943548" y2="22.513508569990506" /><path d="M 143.74570117128098 25.957352633546492 a86.0,86.0 0 0,1 28.547481713284135,27.462654790039103" fill="none" id="id14" stroke="none" /><text fill="#e1ed5e" style="font-size:6.75px; font-family:Arial;" text-anchor="middle"><textPath startOffset="19.985693538727396" xlink:href="#id14">February</textPath></text><path d="M 110.68208982089419 81.91981866633111 l 24.61213158910707 -41.657747650536585 a69.38517294249664,69.38517294249664 0 0,0 1.0230610278593593,0.6163828221772926 l -25.325554683184066 41.227918218900676" fill="red" stroke="none" /><path d="M 110.99172775467656 82.1063720568725 l 17.03249283008072 -27.72749620875407 a53.541048815507196,53.541048815507196 0 0,0 0.7811405675701488,0.48915015175045384 l -17.507252550023132 27.43020171568067" fill="red" stroke="none" /><path d="M 111.2981086023043 82.29822771554956 l 25.877555700342377 -40.54471543955741 a69.09908355778732,69.09908355778732 0 0,0 0.9971095621950875,0.6485477956585977 l -26.571632288321744 40.09326871973928" fill="red" stroke="none" /><path d="M 111.90073688211348 82.69761687909136 l 18.887877833485437 -27.46092967630127 a54.32948526064323,54.32948526064323 0 0,0 0.7659651803869274,0.5366075584709885 l -19.357774153456017 27.131737275066346" fill="red" stroke="none" /><path d="M 112.48926042617603 83.11751280151076 l 28.769735394529768 -38.8897879400522 a69.3747173706833,69.3747173706833 0 0,0 0.953915070129044,0.7184690540878161 l -29.434896618417195 38.388802296458536" fill="red" stroke="none" /><path d="M 113.06298171725822 83.55741782278167 l 30.20097631278601 -38.01444766619755 a69.55097529001384,69.55097529001384 0 0,0 0.9309782276451403,0.7527863148930156 l -30.85085793899564 37.488955254040405" fill="red" stroke="none" /><path d="M 113.6212207817346 84.01681056812373 l 31.365232455384184 -36.80407651724432 a69.35615633264766,69.35615633264766 0 0,0 0.901980780784313,0.7821888448299484 l -31.99410703481526 36.2587226789947" fill="red" stroke="none" /><path d="M 114.42810811169701 84.74124197986012 l 43.28432433509102 -45.77627406041963 a84.0,84.0 0 0,0 1.042067025550327,1.0024676529507923 l -44.06587460425377 45.02442332070654" fill="red" stroke="none" /><path d="M 115.4437574822437 85.77008943001954 l 35.69241012448101 -32.88706162877673 a69.53356532410444,69.53356532410444 0 0,0 0.8034648484063929,0.8872059533240249 l -36.253218613503435 32.267802888183155" fill="red" stroke="none" /><path d="M 116.15771136456269 86.58626213691792 l 37.20055593736222 -30.882994159625124 a69.34915397721304,69.34915397721304 0 0,0 0.7545898217627851,0.9250378977763193 l -37.726644251201414 30.238072092240703" fill="red" stroke="none" /><path d="M 117.45458315368197 88.32363383020206 l 45.571831219198465 -30.48559702964568 a75.82849101448127,75.82849101448127 0 0,0 0.716410845381164,1.0911428676384525 l -46.08983869993756 29.696636098029554" fill="red" stroke="none" /><line stroke="#e1ed5e" stroke-width="0.3" x1="172.23445277983987" x2="176.4835382374775" y1="55.19839476539836" y2="52.563006222186495" /><path d="M 173.08426987136738 54.67131705675599 a86.0,86.0 0 0,1 12.851231095245387,41.99856678651699" fill="none" id="id15" stroke="none" /><text fill="#e1ed5e" style="font-size:6.75px; font-family:Arial;" text-anchor="middle"><textPath startOffset="22.20632615414155" xlink:href="#id15">March</textPath></text><path d="M 118.03404312379186 89.2402003453031 l 41.92324192039166 -25.013009054175917 a69.81811994597878,69.81811994597878 0 0,0 0.6068867782289857,1.037366229232882 l -42.34758837309097 24.28766341258914" fill="red" stroke="none" /><path d="M 119.196687751892 91.48605970444005 l 44.35615732715017 -19.67243933457218 a69.52291790693673,69.52291790693673 0 0,0 0.47576615152721224,1.0981338733603 l -44.688214188520064 18.906006316625277" fill="red" stroke="none" /><path d="M 119.47837535516314 92.15188598940014 l 44.50148846414242 -17.93028159380897 a68.97788525516194,68.97788525516194 0 0,0 0.43425339744058844,1.1051275302039827 l -44.80353541146471 17.161605058709203" fill="red" stroke="none" /><line stroke="#e1ed5e" stroke-width="0.3" x1="184.98032266829074" x2="189.97916517819016" y1="98.17113171792111" y2="98.06355123074" /><path d="M 185.9800911702706 98.14961562048488 a86.0,86.0 0 0,1 -9.607161424134198,41.387399972396054" fill="none" id="id16" stroke="none" /><text fill="#e1ed5e" style="font-size:6.75px; font-family:Arial;" text-anchor="middle"><textPath startOffset="21.466115282336823" xlink:href="#id16">April</textPath></text><line stroke="#e1ed5e" stroke-width="0.3" x1="174.80103733775053" x2="179.2010983576182" y1="140.37084112569926" y2="142.7455964860345" /><path d="M 175.68104954172406 140.8457921977663 a86.0,86.0 0 0,1 -30.038265399797805,32.042727171017184" fill="none" id="id17" stroke="none" /><text fill="#e1ed5e" style="font-size:6.75px; font-family:Arial;" text-anchor="middle"><textPath startOffset="22.206326154141568" xlink:href="#id17">May</textPath></text><line stroke="#e1ed5e" stroke-width="0.3" x1="143.8653032363475" x2="146.44561519142675" y1="172.8068346515853" y2="177.08958963109032" /><path d="M 144.38136562736335 173.6633856474863 a86.0,86.0 0 0,1 -40.68145358897372,12.25698825130547" fill="none" id="id18" stroke="none" /><text fill="#e1ed5e" style="font-size:6.75px; font-family:Arial;" text-anchor="middle"><textPath startOffset="21.466115282336833" xlink:href="#id18">June</textPath></text><line stroke="#e1ed5e" stroke-width="0.3" x1="102.19456741930631" x2="102.32365962044197" y1="184.97166512339345" y2="189.96999836594603" /><path d="M 102.22038585953345 185.97133177190398 a86.0,86.0 0 0,1 -42.740103519485714,-10.115201625700543" fill="none" id="id19" stroke="none" /><text fill="#e1ed5e" style="font-size:6.75px; font-family:Arial;" text-anchor="middle"><textPath startOffset="22.20632615414155" xlink:href="#id19">July</textPath></text><line stroke="#e1ed5e" stroke-width="0.3" x1="58.666819895761336" x2="56.23545636021788" y1="174.27360380694188" y2="178.64263932499728" /><path d="M 58.180547188652646 175.14741091055294 a86.0,86.0 0 0,1 -31.652253787137756,-30.449443065178592" fill="none" id="id20" stroke="none" /><text fill="#e1ed5e" style="font-size:6.75px; font-family:Arial;" text-anchor="middle"><textPath startOffset="22.20632615414155" xlink:href="#id20">August</textPath></text><line stroke="#e1ed5e" stroke-width="0.3" x1="26.63291911575756" x2="22.317208475507996" y1="142.92168965132927" y2="145.44649492493687" /><path d="M 25.769776987707644 143.4266507060508 a86.0,86.0 0 0,1 -11.730757126820373,-40.83630448921669" fill="none" id="id21" stroke="none" /><text fill="#e1ed5e" style="font-size:6.75px; font-family:Arial;" text-anchor="middle"><textPath startOffset="21.46611528233685" xlink:href="#id21">September</textPath></text><line stroke="#e1ed5e" stroke-width="0.3" x1="15.007084014347285" x2="10.007500721073583" y1="101.09737516637583" y2="101.16192664675087" /><path d="M 14.007167355692545 101.11028546245083 a86.0,86.0 0 0,1 10.666146001902534,-42.60595125391555" fill="none" id="id22" stroke="none" /><text fill="#e1ed5e" style="font-size:6.75px; font-family:Arial;" text-anchor="middle"><textPath startOffset="22.20632615414155" xlink:href="#id22">October</textPath></text><line stroke="#e1ed5e" stroke-width="0.3" x1="26.266209847984243" x2="21.928928074336255" y1="57.711370442889674" y2="55.22380399835377" /><path d="M 25.398753493254645 57.213857153982495 a86.0,86.0 0 0,1 29.58750427330803,-30.492523968695096" fill="none" id="id23" stroke="none" /><text fill="#e1ed5e" style="font-size:6.75px; font-family:Arial;" text-anchor="middle"><textPath startOffset="21.46611528233685" xlink:href="#id23">November</textPath></text><line stroke="#e1ed5e" stroke-width="0.3" x1="56.762969772571076" x2="54.21961505331055" y1="26.818313649435495" y2="22.513508569990535" /><path d="M 56.25429882871897 25.957352633546506 a86.0,86.0 0 0,1 42.265352541879196,-11.944610805530505" fill="none" id="id24" stroke="none" /><text fill="#e1ed5e" style="font-size:6.75px; font-family:Arial;" text-anchor="middle"><textPath startOffset="22.20632615414155" xlink:href="#id24">December</textPath></text></svg>