<?xml version="1.0" encoding="utf-8" ?>
<svg baseProfile="full" height="200mm" version="1.1" viewBox="0,0,200,200" width="200mm" xmlns="http://www.w3.org/2000/svg" xmlns:ev="http://www.w3.org/2001/xml-events" xmlns:xlink="http://www.w3.org/1999/xlink"><defs /><rect fill="#1a1a1a" height="200" width="200" x="0" y="0" /><rect fill="#1a1a1a" height="200" width="180" x="10" y="0" /><text alignment-baseline="middle" fill="#e1ed5e" style="dominant-baseline: central; font-size:9.0px; font-family:Arial;" text-anchor="middle" x="100.0" y="100.0">2025</text><line stroke="#e1ed5e" stroke-width="0.3" x1="100.0" x2="100.0" y1="15.0" y2="10.0" /><path d="M 100.0 14.0 a86.0,86.0 0 0,1 42.46469731375804,11.215312516191453" fill="none" id="id1" stroke="none" /><text fill="#e1ed5e" style="font-size:6.75px; font-family:Arial;" text-anchor="middle"><textPath startOffset="22.20632615414155" xlink:href="#id1">January</textPath></text><line stroke="#e1ed5e" stroke-width="0.3" x1="143.23703022742887" x2="145.7803849466894" y1="26.81831364943548" y2="22.513508569990506" /><path d="M 143.74570117128098 25.957352633546492 a86.0,86.0 0 0,1 28.547481713284135,27.462654790039103" fill="none" id="id2" stroke="none" /><text fill="#e1ed5e" style="font-size:6.75px; font-family:Arial;" text-anchor="middle"><textPath startOffset="19.985693538727396" xlink:href="#id2">February</textPath></text><path d="M 115.4437574822437 85.77008943001954 l 2.1437908906003664 -1.975293427720288 a23.915068353952627,23.915068353952627 0 0,0 0.27634016291375246,0.3051417098904676 l -2.1774746941301544 1.9380989305602714" fill="#ff0000" stroke="none" /><path d="M 115.68641384162765 86.03803664274999 l 3.6291244902169226 -3.2301648842671176 a25.85844725658771,25.85844725658771 0 0,0 0.2930724210624259,0.3350324399649561 l -3.6841887748571964 3.1672168880992135" fill="#ff1d02" stroke="none" /><path d="M 116.60985879189232 87.15038557335679 l 3.035786527382143 -2.348526067994014 a24.83817333270429,24.83817333270429 0 0,0 0.25870029089267826,0.3404192583075248 l -3.075762758498935 2.295922033805456" fill="#ff0e01" stroke="none" /><path d="M 116.82858285166822 87.43820079747576 l 8.347844567928979 -6.231299935384131 a31.417082500154237,31.417082500154237 0 0,0 0.3197621493346111,0.43615521233647836 l -8.453869329777216 6.086682279376158" fill="#ff6d0a" stroke="none" /><path d="M 117.04232023915458 87.72973835380427 l 9.325928278473025 -6.714554031651995 a32.491656716905396,32.491656716905396 0 0,0 0.3228856532610742,0.4566988582450936 l -9.440126551537983 6.553028673075109" fill="#ff7c0b" stroke="none" /><path d="M 117.45458315368197 88.32363383020206 l 11.91031060482833 -7.967486051860661 a35.32956149678281,35.32956149678281 0 0,0 0.33378589868051506,0.5083788234246502 l -12.04569313886677 7.761289164458336" fill="#ffa30f" stroke="none" /><line stroke="#e1ed5e" stroke-width="0.3" x1="172.23445277983987" x2="176.4835382374775" y1="55.19839476539836" y2="52.563006222186495" /><path d="M 173.08426987136738 54.67131705675599 a86.0,86.0 0 0,1 12.851231095245387,41.99856678651699" fill="none" id="id3" stroke="none" /><text fill="#e1ed5e" style="font-size:6.75px; font-family:Arial;" text-anchor="middle"><textPath startOffset="22.20632615414155" xlink:href="#id3">March</textPath></text><path d="M 117.84615892207809 88.93136811851018 l 14.618350670836067 -9.066664877103586 a38.201761198471424,38.201761198471424 0 0,0 0.34178606699214803,0.5618064275397735 l -14.772252536114438 8.81369067635673" fill="#ffc912" stroke="none" /><path d="M 118.21658344932153 89.55222093294921 l 17.400889385828915 -9.979953067439808 a41.05967134940537,41.05967134940537 0 0,0 0.34635271574243703,0.6161228342312155 l -17.570099742863786 9.6789467232738" fill="#ffee16" stroke="none" /><path d="M 119.47837535516314 92.15188598940014 l 21.2596629591811 -8.565820079360645 a43.92043941049025,43.92043941049025 0 0,0 0.2765031134331799,0.703670264051136 l -21.40395962249598 8.198600810413724" fill="#ecff1a" stroke="none" /><path d="M 120.67395015179393 96.31383870115 l 28.253545726242333 -5.037601718427572 a49.69913373567869,49.69913373567869 0 0,0 0.14291610335024382,0.843498931989889 l -28.3360736911128 4.550516998121845" fill="#a7ff21" stroke="none" /><path d="M 120.78858239683441 97.02765380044208 l 31.162956462841407 -4.45567155283374 a52.47988031253742,52.47988031253742 0 0,0 0.12016393401869967,0.8953608822201851 l -31.235036395917945 3.9185923285488906" fill="#88ff25" stroke="none" /><line stroke="#e1ed5e" stroke-width="0.3" x1="184.98032266829074" x2="189.97916517819016" y1="98.17113171792111" y2="98.06355123074" /><path d="M 185.9800911702706 98.14961562048488 a86.0,86.0 0 0,1 -9.607161424134198,41.387399972396054" fill="none" id="id4" stroke="none" /><text fill="#e1ed5e" style="font-size:6.75px; font-family:Arial;" text-anchor="middle"><textPath startOffset="21.466115282336823" xlink:href="#id4">April</textPath></text><path d="M 120.99980553446 99.90962569577887 l 42.91398142795497 -0.1846836727390513 a63.91437882642414,63.91437882642414 0 0,0 -0.004734846303809488,1.100211531059592 l -42.91080228436166 -0.5540373365242252" fill="#33ff55" stroke="none" /><path d="M 120.76222939487914 103.15116336523771 l 28.323330452566214 4.298740737623355 a49.647691352961886,49.647691352961886 0 0,0 -0.1355104080173336,0.8438234400787221 l -28.245138290187594 -4.785643407395282" fill="#a8ff21" stroke="none" /><path d="M 120.13307415673323 105.97154293290107 l 13.798284362963912 4.092621267490839 a35.392435520103355,35.392435520103355 0 0,0 -0.17826533970618677,0.5825814445233445 l -13.725792250751592 -4.32952968456624" fill="#ffa40f" stroke="none" /><line stroke="#e1ed5e" stroke-width="0.3" x1="174.80103733775053" x2="179.2010983576182" y1="140.37084112569926" y2="142.7455964860345" /><path d="M 175.68104954172406 140.8457921977663 a86.0,86.0 0 0,1 -30.038265399797805,32.042727171017184" fill="none" id="id5" stroke="none" /><text fill="#e1ed5e" style="font-size:6.75px; font-family:Arial;" text-anchor="middle"><textPath startOffset="22.206326154141568" xlink:href="#id5">May</textPath></text><path d="M 112.04921762599082 117.19931262002967 l 4.947245189313545 7.061804281416534 a29.622314925367718,29.622314925367718 0 0,0 -0.4201334553358849,0.288971621561401 l -4.824954849354777 -7.145916692343029" fill="#ff5407" stroke="none" /><line stroke="#e1ed5e" stroke-width="0.3" x1="143.8653032363475" x2="146.44561519142675" y1="172.8068346515853" y2="177.08958963109032" /><path d="M 144.38136562736335 173.6633856474863 a86.0,86.0 0 0,1 -40.68145358897372,12.25698825130547" fill="none" id="id6" stroke="none" /><text fill="#e1ed5e" style="font-size:6.75px; font-family:Arial;" text-anchor="middle"><textPath startOffset="21.466115282336833" xlink:href="#id6">June</textPath></text><line stroke="#e1ed5e" stroke-width="0.3" x1="102.19456741930631" x2="102.32365962044197" y1="184.97166512339345" y2="189.96999836594603" /><path d="M 102.22038585953345 185.97133177190398 a86.0,86.0 0 0,1 -42.740103519485714,-10.115201625700543" fill="none" id="id7" stroke="none" /><text fill="#e1ed5e" style="font-size:6.75px; font-family:Arial;" text-anchor="middle"><textPath startOffset="22.20632615414155" xlink:href="#id7">July</textPath></text><path d="M 100.18074693466247 120.99922214144158 l 0.07475339425903335 8.684867241614205 a29.685188948688264,29.685188948688264 0 0,0 -0.5110006578429717,0.0 l 0.07475339425902737 -8.684867241614205" fill="#ff5507" stroke="none" /><line stroke="#e1ed5e" stroke-width="0.3" x1="58.666819895761336" x2="56.23545636021788" y1="174.27360380694188" y2="178.64263932499728" /><path d="M 58.180547188652646 175.14741091055294 a86.0,86.0 0 0,1 -31.652253787137756,-30.449443065178592" fill="none" id="id8" stroke="none" /><text fill="#e1ed5e" style="font-size:6.75px; font-family:Arial;" text-anchor="middle"><textPath startOffset="22.20632615414155" xlink:href="#id8">August</textPath></text><path d="M 89.7882731507175 118.34994917583269 l -4.171950564715702 7.49678109848763 a29.579446273103706,29.579446273103706 0 0,0 -0.4427778766541929,-0.25142083415698807 l 4.300377208291102 -7.423857098536009" fill="#ff5307" stroke="none" /><path d="M 88.54995079064634 117.60387380957326 l -6.254808210596083 9.616452508559268 a32.47165134584886,32.47165134584886 0 0,0 -0.46593000591423017,-0.3087930015332748 l 6.419412915250276 -9.507361485934675" fill="#ff7c0b" stroke="none" /><path d="M 87.07902340077011 116.55440617244103 l -5.306936017716654 6.7992673536514605 a29.62517283551865,29.62517283551865 0 0,0 -0.3992944380022292,-0.3172236505926002 l 5.423187948436241 -6.7069097890537295" fill="#ff5407" stroke="none" /><path d="M 86.79598089348748 116.32954008644616 l -9.002707628119802 11.13373692616275 a35.31812985617907,35.31812985617907 0 0,0 -0.4694450022284406,-0.38632127718096526 l 9.193022758892932 -10.977120530124605" fill="#ffa30f" stroke="none" /><path d="M 86.51685102203217 116.09983520530335 l -9.226051583176382 11.016559286520264 a35.369572238895884,35.369572238895884 0 0,0 -0.46339954293438046,-0.39491914372707043 l 9.41431660268782 -10.856115752570242" fill="#ffa40f" stroke="none" /><path d="M 86.24171649860922 115.8653595955263 l -11.258608936348821 12.982860783652523 a38.184613737565826,38.184613737565826 0 0,0 -0.49286816927978,-0.43489885458998545 l 11.480419458535188 -12.787138787290248" fill="#ffc912" stroke="none" /><path d="M 85.97065885151581 115.62618273729859 l -11.484237991533199 12.791391951696458 a38.190329557867685,38.190329557867685 0 0,0 -0.48538172214305636,-0.44338469488812543 l 11.70271926314311 -12.591814490221756" fill="#ffc912" stroke="none" /><path d="M 85.70375840098266 115.38237550388516 l -11.708556030855405 12.598094696950053 a38.198903288320494,38.198903288320494 0 0,0 -0.4777849075910753,-0.4517754519576561 l 11.923676772837297 -12.394684608246465" fill="#ffc912" stroke="none" /><path d="M 85.18274418774928 114.88116024355367 l -12.133247777495718 12.185576515617214 a38.19604537816956,38.19604537816956 0 0,0 -0.4619163718852585,-0.4679188459942865 l 12.34120477443651 -11.974917175642263" fill="#ffc912" stroke="none" /><path d="M 84.19399662182784 113.82643327865904 l -13.050445629217078 11.41598615614138 a38.338940885716255,38.338940885716255 0 0,0 -0.4302313616591503,-0.5004562709841499 l 13.245019500447007 -11.1896527859957" fill="#ffcb12" stroke="none" /><path d="M 83.72743513129214 113.27417163493432 l -17.75403907340622 14.482668453018018 a43.91186568003745,43.91186568003745 0 0,0 -0.4727469656433029,-0.5898245278089825 l 18.00070395110438 -14.174916091630775" fill="#ecff1a" stroke="none" /><path d="M 83.50135304334701 112.99209946851258 l -22.502563926402406 17.719971195001076 a49.64197553266001,49.64197553266001 0 0,0 -0.5228793603643733,-0.6758920581180468 l 22.80425010398485 -17.330001142769778" fill="#a8ff21" stroke="none" /><path d="M 82.44556493220864 111.52570212397912 l -23.92583412924429 15.70896677543143 a49.62197016160347,49.62197016160347 0 0,0 -0.4626543060614912,-0.7180497572120808 l 24.192693298682826 -15.294795418297902" fill="#a8ff21" stroke="none" /><path d="M 82.05923443525364 110.91462005526583 l -24.48656571499123 14.896887218826235 a49.661980903716554,49.661980903716554 0 0,0 -0.4380166006703577,-0.7341410173913192 l 24.73936319135982 -14.473184107548803" fill="#a8ff21" stroke="none" /><line stroke="#e1ed5e" stroke-width="0.3" x1="26.63291911575756" x2="22.317208475507996" y1="142.92168965132927" y2="145.44649492493687" /><path d="M 25.769776987707644 143.4266507060508 a86.0,86.0 0 0,1 -11.730757126820373,-40.83630448921669" fill="none" id="id9" stroke="none" /><text fill="#e1ed5e" style="font-size:6.75px; font-family:Arial;" text-anchor="middle"><textPath startOffset="21.46611528233685" xlink:href="#id9">September</textPath></text><path d="M 81.35079622478065 109.6543875284942 l -12.715320065139792 6.582513062612172 a35.31812985617907,35.31812985617907 0 0,0 -0.27484456008372155,-0.5422943915553617 l 12.82674329500978 -6.362664459354125" fill="#ffa30f" stroke="none" /><path d="M 81.18737489456691 109.33194174019688 l -25.65860704642476 12.72786890452037 a49.64197553266001,49.64197553266001 0 0,0 -0.3731344844305802,-0.7687675567105786 l 25.873894787470057 -12.284312391844507" fill="#a8ff21" stroke="none" /><path d="M 80.87730276802145 108.67885076344099 l -21.074447495821403 9.564654113350862 a44.1433564022631,44.1433564022631 0 0,0 -0.30807630622077103,-0.6946307407582689 l 21.235964886773452 -9.200475036099897" fill="#e9ff1a" stroke="none" /><path d="M 80.73074385275274 108.34839909993369 l -39.380153705195966 17.06143907348878 a63.91723673657508,63.91723673657508 0 0,0 -0.42869905139265024,-1.0133179218396513 l 39.66800373778092 -16.38104662598297" fill="#33ff55" stroke="none" /><path d="M 80.45479744820244 107.68017299344265 l -22.870038333242594 8.986647761796355 a45.572311477730075,45.572311477730075 0 0,0 -0.28060764601032767,-0.7325780171343077 l 23.021340258846433 -8.59164617782889" fill="#d8ff1c" stroke="none" /><path d="M 80.32549172779594 107.34259656027581 l -24.250323182643886 9.050306982158206 a46.88409223700876,46.88409223700876 0 0,0 -0.27566894933637515,-0.7585225534710537 l 24.402516392985486 -8.631536631681035" fill="#c8ff1d" stroke="none" /><path d="M 79.76711848015287 105.62410040840567 l -27.55439719449986 7.659249937432031 a49.59910688039601,49.59910688039601 0 0,0 -0.2215708394371361,-0.824547519921036 l 27.68215611027877 -7.183811484335456" fill="#a8ff21" stroke="none" /><path d="M 79.58551787078972 104.9243191809786 l -31.38562434182174 7.5707446789589685 a53.285810975100794,53.285810975100794 0 0,0 -0.20740723966838817,-0.8935049601396343 l 31.511292147420683 -7.029371061470759" fill="#7fff26" stroke="none" /><line stroke="#e1ed5e" stroke-width="0.3" x1="15.007084014347285" x2="10.007500721073583" y1="101.09737516637583" y2="101.16192664675087" /><path d="M 14.007167355692545 101.11028546245083 a86.0,86.0 0 0,1 10.666146001902534,-42.60595125391555" fill="none" id="id10" stroke="none" /><text fill="#e1ed5e" style="font-size:6.75px; font-family:Arial;" text-anchor="middle"><textPath startOffset="22.20632615414155" xlink:href="#id10">October</textPath></text><line stroke="#e1ed5e" stroke-width="0.3" x1="26.266209847984243" x2="21.928928074336255" y1="57.711370442889674" y2="55.22380399835377" /><path d="M 25.398753493254645 57.213857153982495 a86.0,86.0 0 0,1 29.58750427330803,-30.492523968695096" fill="none" id="id11" stroke="none" /><text fill="#e1ed5e" style="font-size:6.75px; font-family:Arial;" text-anchor="middle"><textPath startOffset="21.46611528233685" xlink:href="#id11">November</textPath></text><path d="M 84.80347519578584 85.50635884689758 l -10.729352826372844 -10.23308892486717 a35.82683786304531,35.82683786304531 0 0,0 0.4294712099353671,-0.4426078334235452 l 10.55161735273436 10.416260953840839" fill="#ffaa0f" stroke="none" /><path d="M 85.05521093208273 85.24692304244772 l -16.157947103888137 -15.950672573322688 a43.70469577319625,43.70469577319625 0 0,0 0.5331227819843727,-0.5308333833326696 l 15.880988521736452 16.226441807305466" fill="#efff19" stroke="none" /><path d="M 85.31137513191541 84.99185889309783 l -18.253468689441913 -18.650529661003482 a47.0965778567307,47.0965778567307 0 0,0 0.5842594142947738,-0.562057093643439 l 17.92972603153471 18.961969841409235" fill="#c6ff1e" stroke="none" /><path d="M 85.83668400450813 84.49514656593479 l -11.885326689738292 -13.01109488759775 a38.62241699358739,38.62241699358739 0 0,0 0.49471456208388787,-0.44415961846083846 l 11.659601140058433 13.213753514827868" fill="#ffcf13" stroke="none" /><path d="M 86.65592168130627 83.78471172551755 l -20.00017292408713 -24.30355711036612 a52.474907548874796,52.474907548874796 0 0,0 0.7024056272681307,-0.5679631682136901 l 19.5788638982545 24.644226375843946" fill="#88ff25" stroke="none" /><path d="M 87.22198572758235 83.33499621200491 l -37.466939097344174 -48.864140285835305 a82.5749602614398,82.5749602614398 0 0,0 1.1354208275589928,-0.8551754275750704 l 36.62027211602679 49.50183230291623" fill="#4bdfff" stroke="none" /><path d="M 88.39885842347998 82.49532879139004 l -11.06221987872091 -16.691505791660607 a41.02446189634587,41.02446189634587 0 0,0 0.5919887954308987,-0.38504597978790156 l 10.773264057505724 16.879450695608043" fill="#ffee16" stroke="none" /><path d="M 88.70189139769569 82.29822771554957 l -10.552084549568699 -16.532908683904466 a40.61335152113402,40.61335152113402 0 0,0 0.5925310982880536,-0.3710429193890734 l 10.265934298908403 16.712095944616472" fill="#ffe915" stroke="none" /><line stroke="#e1ed5e" stroke-width="0.3" x1="56.762969772571076" x2="54.21961505331055" y1="26.818313649435495" y2="22.513508569990535" /><path d="M 56.25429882871897 25.957352633546506 a86.0,86.0 0 0,1 42.265352541879196,-11.944610805530505" fill="none" id="id12" stroke="none" /><text fill="#e1ed5e" style="font-size:6.75px; font-family:Arial;" text-anchor="middle"><textPath startOffset="22.20632615414155" xlink:href="#id12">December</textPath></text><path d="M 90.91171255644093 81.06846463323043 l -6.613263531150667 -13.775888274580906 a36.28104552333325,36.28104552333325 0 0,0 0.5653308862888304,-0.26543043137218947 l 6.375154433562229 13.887683688593103" fill="#ffb010" stroke="none" /><path d="M 91.90106846888425 80.62456947434976 l -10.072397819604895 -24.096640826099144 a47.11706907251289,47.11706907251289 0 0,0 0.750992525537548,-0.30634870746610016 l 9.656121424478966 24.26645041974882" fill="#c5ff1e" stroke="none" /><path d="M 95.33964822691252 79.52364482259891 l -6.832648351416774 -30.020852772065524 a51.78858042612801,51.78858042612801 0 0,0 0.8709292372975074,-0.19035139817493388 l 6.314876389965745 30.134017668336327" fill="#8fff24" stroke="none" /><path d="M 95.692805502759 79.44645832069477 l -6.385703339119665 -30.47199744899996 a52.133901709665366,52.133901709665366 0 0,0 0.8799050462592424,-0.17650067456270244 l 5.860231883393286 30.577402079639874" fill="#8cff24" stroke="none" /><path d="M 96.40284397218896 79.31037775812273 l -10.791468083433102 -62.06886672563182 a84.0,84.0 0 0,0 1.4266831754444573,-0.235414948241492 l 9.72145570184976 62.24542793681294" fill="#4dd2ff" stroke="none" /><path d="M 97.83486435360386 79.11191278185805 l -3.0816533724021244 -29.73016703408863 a50.88945331354268,50.88945331354268 0 0,0 0.872087406840882,-0.08281520747192678 l 2.5694408384710057 29.778807786075735" fill="#9aff23" stroke="none" /><path d="M 98.19473922651362 79.07773832637324 l -1.2757359136694197 -14.785277010527302 a35.84021288255169,35.84021288255169 0 0,0 0.6151030637244803,-0.047743836119003964 l 1.0210426605826053 14.805046108834768" fill="#ffaa0f" stroke="none" /><path d="M 99.27714615592234 79.0124445844662 l -1.5606365726428608 -45.31199054996209 a66.33885832386744,66.33885832386744 0 0,0 1.1415760214202946,-0.029483540655962384 l 0.7804339160276873 45.33214088276041" fill="#36ff72" stroke="none" /></svg>